<svg xmlns="http://www.w3.org/2000/svg" aria-hidden="true" style="position:absolute;width:0;height:0;overflow:hidden"><defs><symbol id="icon-charm_menu-hamburger" viewBox="0 0 47 32"><path stroke-linecap="round" stroke-linejoin="round" stroke-width="4.364" d="M1.961 29.153h42.964M1.961 15.615h42.964M1.961 2.077h42.964"/></symbol><symbol id="icon-close" viewBox="0 0 32 32"><path fill="#e7e9fc" d="M32 16c0 8.837-7.163 16-16 16S0 24.837 0 16 7.163 0 16 0s16 7.163 16 16z" style="fill:var(--color1, #e7e9fc)"/><path fill="none" stroke="#000" stroke-width="1.333" d="M31.333 16c0 8.468-6.865 15.333-15.333 15.333S.667 24.468.667 16 7.532.667 16 .667 31.333 7.532 31.333 16z" style="stroke:var(--color2, #000)"/><path d="m21.333 11.741-1.075-1.075-4.259 4.259-4.259-4.259-1.075 1.075L14.924 16l-4.259 4.259 1.075 1.075 4.259-4.259 4.259 4.259 1.075-1.075L17.074 16l4.259-4.259z" style="fill:var(--color2, #000)"/></symbol><symbol id="icon-close-black-18dp" viewBox="0 0 32 32"><path d="M32 3.224 28.776 0 16 12.776 3.224 0 0 3.224 12.776 16 0 28.776 3.224 32 16 19.224 28.776 32 32 28.776 19.224 16 32 3.224z"/></symbol></defs></svg>